<svg width="137" height="43" viewBox="0 0 137 43" fill="none" xmlns="http://www.w3.org/2000/svg">
<path d="M120.827 21.2879C120.827 19.5617 121.029 18.0273 121.433 16.6847C121.837 15.3321 122.432 14.1964 123.22 13.2778C124.007 12.3491 124.976 11.6425 126.127 11.158C127.278 10.6734 128.6 10.4312 130.094 10.4312C130.69 10.4312 131.275 10.4766 131.85 10.5674C132.426 10.6482 132.951 10.7441 133.425 10.8551C133.97 10.9763 134.495 11.1125 135 11.264C134.97 11.5264 134.924 11.804 134.864 12.0968C134.813 12.3592 134.732 12.657 134.621 12.9901C134.52 13.3132 134.384 13.6513 134.213 14.0046C133.839 13.8532 133.43 13.722 132.986 13.6109C132.602 13.51 132.163 13.4191 131.669 13.3384C131.174 13.2576 130.649 13.2173 130.094 13.2173C129.196 13.2173 128.383 13.399 127.656 13.7624C126.939 14.1258 126.324 14.6557 125.809 15.3523C125.304 16.0387 124.915 16.8816 124.643 17.8809C124.37 18.8803 124.234 20.0159 124.234 21.2879C124.234 22.5497 124.37 23.6601 124.643 24.6191C124.915 25.5781 125.304 26.3806 125.809 27.0266C126.324 27.6727 126.939 28.1623 127.656 28.4954C128.383 28.8184 129.196 28.9799 130.094 28.9799C130.659 28.9799 131.199 28.9395 131.714 28.8588C132.229 28.778 132.683 28.6872 133.077 28.5862C133.541 28.4752 133.97 28.3389 134.364 28.1774C134.475 28.4096 134.571 28.667 134.652 28.9496C134.722 29.1919 134.783 29.4847 134.833 29.8279C134.894 30.161 134.914 30.5395 134.894 30.9635C134.419 31.125 133.915 31.2613 133.38 31.3723C132.925 31.4834 132.411 31.5793 131.835 31.66C131.27 31.7408 130.69 31.7812 130.094 31.7812C127.025 31.7812 124.714 30.9029 123.159 29.1465C121.604 27.3799 120.827 24.7604 120.827 21.2879Z" fill="#FFDD00" stroke="#FFDD00" stroke-width="2"/>
<path d="M97.8635 10.8247H103.299L108.493 23.665L110.568 29.5098L110.371 23.665L110.265 10.8247H113.535V31.3873H108.236L102.921 18.5168L100.846 12.5812L101.043 18.5168L101.149 31.3873H97.8635V10.8247Z" fill="#FFDD00" stroke="#FFDD00" stroke-width="2"/>
<path d="M79.6702 10.8247H84.8336L90.9812 31.3873H87.544L85.6664 25.1035H79.0191L77.2324 31.3873H73.7043L79.6702 10.8247ZM84.9547 22.4688L82.1838 12.3843L79.6854 22.4688H84.9547Z" fill="#FFDD00" stroke="#FFDD00" stroke-width="2"/>
<path d="M54.9646 10.8247H62.5355C63.333 10.8247 64.08 10.9357 64.7765 11.1578C65.473 11.3698 66.0737 11.6979 66.5784 12.142C67.0831 12.5761 67.4819 13.1212 67.7746 13.7774C68.0673 14.4234 68.2137 15.1755 68.2137 16.0335C68.2137 16.4878 68.133 16.937 67.9715 17.3811C67.82 17.8253 67.603 18.2442 67.3204 18.6379C67.0478 19.0215 66.7248 19.3647 66.3513 19.6675C65.9778 19.9603 65.574 20.1824 65.1399 20.3338C65.5942 20.4145 66.0484 20.5862 66.5027 20.8486C66.9569 21.1111 67.3658 21.4593 67.7292 21.8934C68.0926 22.3275 68.3853 22.8372 68.6074 23.4227C68.8396 23.9981 68.9557 24.6341 68.9557 25.3306C68.9557 26.2896 68.8093 27.1426 68.5166 27.8896C68.2339 28.6366 67.8049 29.2725 67.2295 29.7974C66.6541 30.3123 65.9424 30.706 65.0945 30.9785C64.2466 31.2511 63.2623 31.3873 62.1418 31.3873H54.9646V10.8247ZM61.7784 28.8132C62.3336 28.8132 62.8333 28.7527 63.2775 28.6315C63.7317 28.5104 64.1204 28.3135 64.4434 28.041C64.7664 27.7684 65.0137 27.4151 65.1854 26.9811C65.3671 26.547 65.4579 26.017 65.4579 25.3912C65.4579 24.7552 65.3671 24.2252 65.1854 23.8013C65.0137 23.3672 64.7715 23.0189 64.4585 22.7565C64.1557 22.4839 63.7923 22.2921 63.3683 22.1811C62.9545 22.0701 62.5052 22.0145 62.0207 22.0145H58.4018V28.8132H61.7784ZM62.6718 19.7281C63.3784 19.5161 63.8932 19.1123 64.2163 18.5168C64.5494 17.9111 64.716 17.1035 64.716 16.0941C64.716 15.236 64.4636 14.5698 63.9589 14.0953C63.4541 13.6108 62.7576 13.3685 61.8693 13.3685H58.4018V19.7281H62.6718Z" fill="#FFDD00" stroke="#FFDD00" stroke-width="2"/>
<path d="M29.0847 28.9192L38.0487 15.3673L39.7143 13.4594C38.4929 13.4695 37.3219 13.4745 36.2014 13.4745C35.091 13.4745 34.1017 13.4745 33.2336 13.4745H30.4021C30.3213 13.1414 30.2607 12.8638 30.2204 12.6417C30.1901 12.4096 30.1749 12.2127 30.1749 12.0512C30.1749 11.8897 30.185 11.7332 30.2052 11.5818C30.2355 11.4304 30.2658 11.2992 30.2961 11.1881C30.3364 11.0569 30.3819 10.9357 30.4323 10.8247H42.9395L43.2423 13.2777L34.2481 26.8145L32.4008 28.7072C33.0065 28.7072 33.6273 28.7072 34.2632 28.7072C34.8992 28.7072 35.5251 28.7072 36.1408 28.7072C36.7667 28.6971 37.3724 28.6921 37.9578 28.6921C38.5534 28.6921 39.1086 28.6921 39.6234 28.6921H43.1666C43.1767 28.7728 43.1919 28.8536 43.2121 28.9344C43.2222 29.005 43.2323 29.0858 43.2423 29.1766C43.2524 29.2675 43.2575 29.3533 43.2575 29.434C43.2575 29.646 43.2272 29.9186 43.1666 30.2517C43.1061 30.5747 42.99 30.9533 42.8184 31.3873H29.6904L29.0847 28.9192Z" fill="white" stroke="white" stroke-width="2"/>
<path d="M17.7882 10.8247H22.9515L29.0991 31.3873H25.6619L23.7843 25.1035H17.1371L15.3503 31.3873H11.8223L17.7882 10.8247ZM23.0727 22.4688L20.3017 12.3843L17.8033 22.4688H23.0727Z" fill="white" stroke="white" stroke-width="2"/>
<rect x="48.8313" y="9.91699" width="1.02803" height="21.5886" fill="#FFDD00"/>
<rect y="0.150879" width="33.9249" height="3.59809" fill="#FFDD00"/>
<rect y="39" width="33.9249" height="3.59809" fill="#FFDD00"/>
<rect x="30.3269" y="36.1035" width="3.59809" height="3.08408" fill="#FFDD00"/>
<rect x="30.3269" y="3.74902" width="3.59809" height="3.08408" fill="#FFDD00"/>
<rect x="4" y="1" width="41" height="4" transform="rotate(90 4 1)" fill="#FFDD00"/>
</svg>
